<svg height="128" viewBox="0 0 128 128" width="128" xmlns="http://www.w3.org/2000/svg"><path d="m76.279 31.487a1.746 1.746 0 0 1 -1.237-.512 15.615 15.615 0 0 0 -22.084 0 1.75 1.75 0 0 1 -2.475-2.475 19.115 19.115 0 0 1 27.033 0 1.75 1.75 0 0 1 -1.237 2.987z" fill="#8299fd"/><path d="m71.912 35.855a1.741 1.741 0 0 1 -1.237-.513 9.453 9.453 0 0 0 -13.35 0 1.75 1.75 0 0 1 -2.475-2.474 12.954 12.954 0 0 1 18.3 0 1.75 1.75 0 0 1 -1.237 2.987z" fill="#8299fd"/><circle cx="64" cy="42.017" fill="#d2ddff" r="4.62"/><path d="m24.651 82.682h78.698v20.651h-78.698z" fill="#ff7eb7"/><circle cx="36.348" cy="93.007" fill="#d2ddff" r="3"/><path d="m50.75 94.757h-3.875a1.75 1.75 0 0 1 0-3.5h3.875a1.75 1.75 0 0 1 0 3.5z" fill="#d2ddff"/><path d="m62.125 94.757h-3.875a1.75 1.75 0 0 1 0-3.5h3.875a1.75 1.75 0 0 1 0 3.5z" fill="#d2ddff"/><path d="m82.177 82.682h-36.354l2-6.133h32.354z" fill="#ffa7ce"/><path d="m38.1 45.409v-13.485a2.424 2.424 0 0 0 -2.422-2.424 2.424 2.424 0 0 0 -2.424 2.424v13.485a7.836 7.836 0 0 1 -1.042 3.9 7.826 7.826 0 0 0 -1.042 3.9v29.473h9.015v-29.466a7.826 7.826 0 0 0 -1.042-3.9 7.835 7.835 0 0 1 -1.043-3.907z" fill="#8299fd"/><path d="m94.746 45.409v-13.485a2.424 2.424 0 0 0 -2.424-2.424 2.424 2.424 0 0 0 -2.422 2.424v13.485a7.826 7.826 0 0 1 -1.042 3.9 7.836 7.836 0 0 0 -1.042 3.9v29.473h9.015v-29.466a7.835 7.835 0 0 0 -1.041-3.9 7.826 7.826 0 0 1 -1.044-3.907z" fill="#8299fd"/><g fill="#3536c0"><path d="m52.958 30.975a15.615 15.615 0 0 1 22.084 0 1.75 1.75 0 1 0 2.475-2.475 19.116 19.116 0 0 0 -27.034 0 1.75 1.75 0 0 0 2.475 2.475z"/><path d="m71.912 35.855a1.75 1.75 0 0 0 1.237-2.987 12.953 12.953 0 0 0 -18.3 0 1.749 1.749 0 1 0 2.474 2.474 9.453 9.453 0 0 1 13.35 0 1.743 1.743 0 0 0 1.239.513z"/><path d="m66.029 39.987a2.852 2.852 0 0 1 .841 2.029 1.75 1.75 0 0 0 3.5 0 6.37 6.37 0 1 0 -6.37 6.371 1.75 1.75 0 0 0 0-3.5 2.87 2.87 0 0 1 -2.029-4.9 2.937 2.937 0 0 1 4.058 0z"/><path d="m103.349 80.932h-13.785v-27.717a6.089 6.089 0 0 1 .81-3.03 9.6 9.6 0 0 0 1.274-4.775v-13.486a.674.674 0 0 1 1.348 0v13.486a9.6 9.6 0 0 0 1.275 4.775 6.088 6.088 0 0 1 .809 3.03v23.334a1.75 1.75 0 0 0 3.5 0v-23.334a9.6 9.6 0 0 0 -1.274-4.775 6.079 6.079 0 0 1 -.81-3.03v-13.486a4.174 4.174 0 1 0 -8.348 0v13.486a6.088 6.088 0 0 1 -.809 3.03 9.6 9.6 0 0 0 -1.275 4.775v27.717h-37.829l.858-2.633h31.084a1.75 1.75 0 0 0 0-3.5h-32.354a1.751 1.751 0 0 0 -1.664 1.207l-1.606 4.926h-2.617v-27.717a9.6 9.6 0 0 0 -1.275-4.775 6.088 6.088 0 0 1 -.809-3.03v-13.486a4.174 4.174 0 0 0 -8.348 0v13.486a6.079 6.079 0 0 1 -.81 3.03 9.6 9.6 0 0 0 -1.274 4.775v4.535a1.75 1.75 0 0 0 3.5 0v-4.535a6.088 6.088 0 0 1 .809-3.03 9.6 9.6 0 0 0 1.271-4.775v-13.486a.674.674 0 0 1 1.348 0v13.486a9.6 9.6 0 0 0 1.274 4.775 6.089 6.089 0 0 1 .81 3.03v27.717h-5.512v-10.432a1.75 1.75 0 0 0 -3.5 0v10.432h-4.769a1.75 1.75 0 0 0 -1.75 1.75v20.651a1.751 1.751 0 0 0 1.75 1.75h48.516a1.75 1.75 0 0 0 0-3.5h-46.767v-17.151h75.2v17.151h-13.785a1.75 1.75 0 0 0 0 3.5h15.534a1.751 1.751 0 0 0 1.75-1.75v-20.651a1.75 1.75 0 0 0 -1.75-1.75z"/><path d="m81.25 101.583h-1.073a1.75 1.75 0 1 0 0 3.5h1.073a1.75 1.75 0 0 0 0-3.5z"/><path d="m36.349 88.257a4.75 4.75 0 1 0 4.75 4.75 4.755 4.755 0 0 0 -4.75-4.75zm0 6a1.25 1.25 0 1 1 1.25-1.25 1.251 1.251 0 0 1 -1.25 1.25z"/><path d="m46.875 91.257a1.75 1.75 0 0 0 0 3.5h3.875a1.75 1.75 0 0 0 0-3.5z"/><path d="m58.25 91.257a1.75 1.75 0 0 0 0 3.5h3.875a1.75 1.75 0 0 0 0-3.5z"/><path d="m31.17 66.062a1.75 1.75 0 0 0 1.75-1.75v-.624a1.75 1.75 0 0 0 -3.5 0v.624a1.75 1.75 0 0 0 1.75 1.75z"/></g></svg>