<svg viewBox="0 0 48 48" xmlns="http://www.w3.org/2000/svg"><path d="m47 28v10h-46v-10a2 2 0 0 1 2-2h42a2 2 0 0 1 2 2z" fill="#6fabe6"/><path d="m47 28v10h-41v-12h39a2 2 0 0 1 2 2z" fill="#82bcf4"/><path d="m47 38v2a2 2 0 0 1 -2 2h-42a2 2 0 0 1 -2-2v-2z" fill="#374f68"/><path d="m47 38v2h-39a2 2 0 0 1 -2-2z" fill="#425b72"/><path d="m4 22h8v4h-8z" fill="#c6c3d8"/><path d="m6 22h6v3h-6z" fill="#dad7e5"/><path d="m36 22h8v4h-8z" fill="#c6c3d8"/><path d="m36 22h8v3h-8z" fill="#dad7e5"/><path d="m11 46h-6l-1-4h8z" fill="#374f68"/><path d="m4 42 .25 1h6.75l-.75 3h.75l1-4z" fill="#2c435e"/><path d="m43 46h-6l-1-4h8z" fill="#374f68"/><path d="m36 42 .25 1h6.75l-.75 3h.75l1-4z" fill="#2c435e"/><path d="m10 4v18h-4v-18a2 2 0 0 1 4 0z" fill="#edebf2"/><path d="m42 4v18h-4v-18a2 2 0 0 1 4 0z" fill="#dad7e5"/><path d="m42 4.22v17.78h-4v-17.78a2 2 0 1 1 4 0z" fill="#edebf2"/><path d="m5 30h18v4h-18z" fill="#9fdbf3"/><path d="m5 30v1h17v3h1v-4z" fill="#8bd1ea"/><circle cx="41" cy="32" fill="#425b72" r="2"/><path d="m35 32a2 2 0 1 1 -2.82-1.82 2 2 0 0 1 2.82 1.82z" fill="#425b72"/><path d="m25.41 16.59a2 2 0 0 0 -2.82 0 1 1 0 0 1 -1.42-1.42 4 4 0 0 1 5.66 0 1 1 0 0 1 -1.42 1.42z" fill="#fc6"/><path d="m28.24 13.76a6 6 0 0 0 -8.48 0 1 1 0 0 1 -1.42-1.42 8 8 0 0 1 11.32 0 1 1 0 0 1 -1.42 1.42z" fill="#fc6"/><path d="m25 19a1 1 0 0 0 -2 0 1 1 0 0 0 2 0" fill="#fc6"/><g fill="#edebf2"><path d="m16 30 4 4h3v-4z" opacity=".2"/><path d="m18 34-4-4h-3l4 4z" opacity=".2"/><path d="m12 34-4-4h-2l4 4z" opacity=".2"/></g></svg>